<?xml version="1.0" encoding="utf-8"?>
<!-- Generator: Adobe Illustrator 21.1.0, SVG Export Plug-In . SVG Version: 6.00 Build 0)  -->
<svg version="1.1" id="Layer_1" xmlns="http://www.w3.org/2000/svg" xmlns:xlink="http://www.w3.org/1999/xlink" x="0px" y="0px"
	 viewBox="0 0 138 24" style="enable-background:new 0 0 138 24;" xml:space="preserve">
<style type="text/css">
	.st0{fill:#FFFFFF;}
</style>
<g id="Layer_2">
	<g>
		<g>
			<path class="st0" d="M1,15.2l3.4-0.7c0.5,1.9,1.9,2.9,4.7,2.9c1.2,0,2.1-0.2,2.8-0.8c0.7-0.5,1-1.1,1-1.8c0-0.6-0.1-1-0.5-1.5
				c-0.3-0.5-0.9-0.8-1.9-1l-3.7-1C5.6,11,4.6,10.7,4,10.2c-0.6-0.5-1.1-1-1.5-1.8S2,6.8,2,5.9c0-1.7,0.7-3.2,1.9-4.2
				c1.4-1,2.9-1.6,5-1.6c1.7,0,3.2,0.3,4.5,1.1c1.4,0.7,2.1,1.8,2.5,3l-3.4,0.8C12,3.7,10.8,2.9,8.9,2.9C7.8,2.9,7,3.1,6.4,3.6
				C6,4.1,5.6,4.7,5.6,5.4c0,1.1,0.9,1.9,2.7,2.4l3.3,0.8c2,0.5,3.4,1.2,4.1,2.3c0.7,1,1,2,1,3.3c0,1.9-0.7,3.4-2.1,4.5
				c-1.5,1.1-3.3,1.7-5.6,1.7c-1.9,0-3.6-0.5-5.1-1.2C2.5,18.2,1.5,17,1,15.2z"/>
			<path class="st0" d="M23.4,20.3c-2.1,0-3.7-0.8-4.9-2.3c-1.1-1.6-1.7-3.3-1.7-5.3c0-2.1,0.6-4,1.8-5.3c1.2-1.5,2.9-2.1,5-2.1
				c1.9,0,3.5,0.7,4.7,2c1.2,1.4,1.8,3.2,1.8,5.4s-0.7,4.1-1.9,5.4C27,19.5,25.3,20.3,23.4,20.3z M23.5,17.6c2.1,0,3.3-1.6,3.3-4.9
				c0-1.5-0.2-2.6-0.8-3.5C25.4,8.3,24.6,8,23.6,8c-1.1,0-1.9,0.5-2.5,1.4c-0.6,0.8-0.9,1.9-0.9,3.4c0,1.6,0.3,2.7,0.9,3.6
				C21.7,17.1,22.5,17.6,23.5,17.6z"/>
			<path class="st0" d="M42.8,19.9h-3v-3c-0.8,2.3-2.4,3.4-4.5,3.4c-1.4,0-2.4-0.5-3.2-1.2c-0.8-0.8-1.1-1.9-1.1-3.4V5.6h3.3V15
				c0,1,0.2,1.7,0.7,2c0.5,0.3,0.9,0.5,1.4,0.5c0.7,0,1.5-0.3,2.1-0.9c0.7-0.7,1.1-2,1.1-4.1V5.6h3.3V19.9z"/>
			<path class="st0" d="M56.4,19.9h-3.3v-9c0-0.9-0.2-1.7-0.7-2.1c-0.5-0.5-1-0.7-1.6-0.7c-0.8,0-1.6,0.3-2.3,1.1
				C48,10,47.8,11,47.8,12.6v7.3h-3.3V5.6h2.9V9c1-2.4,2.5-3.6,4.4-3.6c1.2,0,2.4,0.5,3.3,1.2c0.9,0.8,1.4,2.1,1.4,4.2V19.9z"/>
			<path class="st0" d="M70.1,19.9h-3V17c-0.8,2.1-2.3,3.2-4.3,3.2c-1.8,0-3.2-0.8-4.1-2.3c-0.9-1.5-1.4-3.3-1.4-5.5
				c0-2,0.5-3.8,1.5-5.3c1-1.5,2.4-2.3,4.2-2.3c1.8,0,3.2,0.8,3.8,2.5V0.5h3.3C70.1,0.5,70.1,19.9,70.1,19.9z M66.9,11.5
				c0-1.1-0.2-2-0.8-2.7c-0.6-0.7-1.2-1-2.1-1c-0.9,0-1.7,0.5-2.3,1.2c-0.7,0.8-0.9,2-0.9,3.7c0,3.2,1,4.9,3,4.9
				c0.8,0,1.5-0.3,2.1-1c0.6-0.7,0.9-1.6,0.9-2.6V11.5z"/>
			<path class="st0" d="M72.1,19.9V0.5h7.6c1.2,0,2.4,0.1,3.2,0.5c0.8,0.2,1.6,0.8,2.1,1.7c0.6,0.8,0.9,1.8,0.9,2.9
				c0,1-0.3,2-0.9,2.8c-0.7,0.8-1.5,1.2-2.6,1.5c1.4,0.2,2.4,0.8,3,1.7c0.7,0.9,1,1.9,1,3c0,1.5-0.5,2.7-1.5,3.7
				c-1,1-2.5,1.6-4.5,1.6H72.1z M75.4,8.6h4.3c0.9,0,1.6-0.2,2-0.8c0.5-0.6,0.8-1.2,0.8-2c0-0.9-0.3-1.6-0.9-1.9
				c-0.6-0.5-1.2-0.7-2-0.7h-4.2V8.6z M75.4,17h4.5c0.9,0,1.7-0.2,2.3-0.8c0.6-0.5,0.8-1.1,0.8-2c0-0.8-0.3-1.5-0.8-2
				c-0.6-0.6-1.4-0.8-2.3-0.8h-4.5V17z"/>
			<path class="st0" d="M96.9,15.3l2.9,0.5c-0.3,1.4-1.1,2.4-2.3,3.3c-1.1,0.8-2.5,1.2-4.2,1.2c-2,0-3.6-0.7-4.9-2
				c-1.2-1.4-1.8-3.2-1.8-5.4c0-2.1,0.6-4,1.8-5.4c1.4-1.5,3-2.1,5.1-2.1s3.6,0.7,4.7,2.1c1.1,1.4,1.7,3.2,1.7,5.4v0.3h-9.8
				c0,1,0.1,1.8,0.2,2.4c0.2,0.6,0.6,1.1,1.1,1.6c0.6,0.5,1.2,0.7,2,0.7C95.3,17.7,96.3,16.9,96.9,15.3z M96.6,11
				c0-1-0.3-1.9-0.9-2.5c-0.6-0.7-1.4-1-2.3-1s-1.7,0.3-2.3,0.9c-0.6,0.6-0.9,1.5-1,2.6H96.6z"/>
			<path class="st0" d="M107.6,17.3v2.5c-1,0.2-1.7,0.3-2.3,0.3c-0.9,0-1.6-0.2-2.3-0.6c-0.7-0.3-1.1-0.8-1.4-1.5
				c-0.3-0.6-0.5-1.6-0.5-2.8V8.1h-1.8V5.6h2l0.3-3.7l2.7-0.2v4h2.9v2.5h-2.9v7c0,0.9,0.1,1.5,0.5,1.8c0.3,0.3,0.9,0.5,1.8,0.5
				C107,17.5,107.3,17.5,107.6,17.3z"/>
			<path class="st0" d="M115.3,17.3v2.5c-1,0.2-1.7,0.3-2.3,0.3c-0.9,0-1.6-0.2-2.3-0.6c-0.7-0.3-1.1-0.8-1.4-1.5
				c-0.3-0.6-0.5-1.6-0.5-2.8V8.1h-1.8V5.6h2l0.3-3.7l2.7-0.2v4h2.9v2.5h-2.9v7c0,0.9,0.1,1.5,0.5,1.8c0.3,0.3,0.9,0.5,1.8,0.5
				C114.7,17.5,115.1,17.5,115.3,17.3z"/>
			<path class="st0" d="M124.9,15.3l2.9,0.5c-0.3,1.4-1.1,2.4-2.3,3.3c-1.1,0.8-2.5,1.2-4.2,1.2c-2,0-3.6-0.7-4.9-2
				c-1.2-1.4-1.8-3.2-1.8-5.4c0-2.1,0.6-4,1.8-5.4s2.9-2.1,5-2.1s3.6,0.7,4.7,2.1c1.1,1.4,1.7,3.2,1.7,5.4v0.3h-9.8
				c0,1,0.1,1.8,0.2,2.4c0.2,0.6,0.6,1.1,1.1,1.6c0.6,0.5,1.2,0.7,2,0.7C123.2,17.7,124.3,16.9,124.9,15.3z M124.7,11
				c0-1-0.3-1.9-0.9-2.5c-0.6-0.7-1.4-1-2.3-1s-1.7,0.3-2.3,0.9c-0.6,0.6-0.9,1.5-1,2.6H124.7z"/>
			<path class="st0" d="M132.2,19.9h-3.3V5.6h2.9V9c0.5-1.4,1-2.4,1.7-2.9c0.7-0.6,1.5-0.9,2.3-0.9c0.1,0,0.2,0,0.5,0v3.5
				c-1.7,0-2.7,0.6-3.3,1.6s-0.8,2-0.8,3V19.9z"/>
		</g>
		<g>
			<rect x="58.6" y="21.7" class="st0" width="28.2" height="2.3"/>
		</g>
	</g>
</g>
</svg>
